# xmcd
#
# Track frame offsets:
#	150
#	11297
#	22943
#	34409
#	45458
#	58983
#	71990
#	83775
#	94664
#	105037
#	113902
#	123003
#	136087
#	147402
#	157401
#	172118
#	182505
#	194063
#
# Disc length: 2750 seconds
#
# Revision: 1
# Processed by: cddbd v1.5.1PL2 Copyright (c) Steve Scherf et al.
# Submitted via: audiograbber 1.80.04
#
DISCID=f60abc12
DTITLE=Dorf Kapelle - Sentimental Journeys
DYEAR=2004
DGENRE=Polka
TTITLE0=New Hartford March
TTITLE1=Rain Rain Polka
TTITLE2=Du Du Liegst Mir Im Herzen Waltz
TTITLE3=Red Raven Polka
TTITLE4=Swinging Beer Keg Polka
TTITLE5=I Want To Surrender To You Waltz
TTITLE6=Lili Marleen
TTITLE7=Sentimental Journey
TTITLE8=Helena Polka
TTITLE9=Waltz Across Texas
TTITLE10=Clarinet Polka
TTITLE11=Swiss Boy Polka
TTITLE12=Rock N' Rye Polka
TTITLE13=Blue Shirt Waltz
TTITLE14=South Bohemian Polka
TTITLE15=Elsie Schultzenheim Polka
TTITLE16=Liechtensteiner Polka
TTITLE17=Men In Grey March
EXTD=
EXTT0=
EXTT1=
EXTT2=
EXTT3=
EXTT4=
EXTT5=
EXTT6=
EXTT7=
EXTT8=
EXTT9=
EXTT10=
EXTT11=
EXTT12=
EXTT13=
EXTT14=
EXTT15=
EXTT16=
EXTT17=
PLAYORDER=
